<svg id="Layer_1" data-name="Layer 1" xmlns="http://www.w3.org/2000/svg" viewBox="0 0 100 100"><defs><style>.cls-1,.cls-3{fill:#0981fe;}.cls-1,.cls-2{stroke:#0981fe;stroke-miterlimit:10;}.cls-1{stroke-width:0.5px;}.cls-2{fill:none;stroke-width:4px;}</style></defs><title>allicons</title><path class="cls-1" d="M48.78,31.11c0-5.77-10.59-8.79-21-8.79s-21,3-21,8.79V64c0,5.77,10.59,8.79,21,8.79s21-3,21-8.79Zm-21-5c11.15,0,17.2,3.31,17.2,5s-6,5-17.2,5-17.2-3.31-17.2-5S16.64,26.1,27.8,26.1Zm-17.2,10.3c4,2.36,10.59,3.5,17.2,3.5S41,38.67,45,36.41V47.28c0,1.7-6,5-17.2,5s-17.2-3.31-17.2-5ZM27.8,69c-11.15,0-17.2-3.31-17.2-5V52.48c4.06,2.36,10.68,3.59,17.2,3.59S41,54.84,45,52.57V64C45,65.71,38.95,69,27.8,69Z"/><path class="cls-1" d="M26.76,48.32h2.08a1.89,1.89,0,1,0,0-3.78H26.76a1.89,1.89,0,0,0,0,3.78Z"/><path class="cls-1" d="M28.83,60.32H26.76a1.89,1.89,0,1,0,0,3.78h2.08a1.89,1.89,0,1,0,0-3.78Z"/><path class="cls-1" d="M59.54,78.57h8.14V74.78H59.18V49.45h8.51V45.67H59.18V20.34h8.51V16.55H59.54a4.11,4.11,0,0,0-4.15,4.32V74.54S54.88,78.57,59.54,78.57Z"/><rect class="cls-2" x="75.21" y="12.21" width="20" height="14.5" rx="5" ry="5"/><rect class="cls-2" x="75.21" y="40.21" width="20" height="14.5" rx="5" ry="5"/><rect class="cls-2" x="75.21" y="70.21" width="20" height="14.5" rx="5" ry="5"/><circle class="cls-3" cx="67.93" cy="18.46" r="2.13" transform="translate(-2.02 10.61) rotate(-8.8)"/><circle class="cls-3" cx="67.93" cy="47.56" r="2.13" transform="translate(-6.48 10.95) rotate(-8.8)"/><circle class="cls-3" cx="67.9" cy="76.67" r="2.12" transform="translate(-10.93 11.29) rotate(-8.8)"/></svg>