<svg id="Layer_1" data-name="Layer 1" xmlns="http://www.w3.org/2000/svg" viewBox="0 0 100 100"><defs><style>.cls-1{fill:#0981fe;stroke:#0981fe;stroke-miterlimit:10;stroke-width:0.01px;}</style></defs><title>allicons</title><path class="cls-1" d="M55.65,72.07a2.57,2.57,0,0,0,2.53-2.57,11.84,11.84,0,0,0,0-2.1c0-.56.18-.73.77-.87A13.1,13.1,0,0,0,66,62.64a8.57,8.57,0,0,0-1.26-13.26A14.86,14.86,0,0,0,62,47.78c-1.21-.51-2.53-.89-3.67-1.3V36a.91.91,0,0,0,.38.11l.58.23c2.16.89,3.86,2.1,4.25,4.64a2.51,2.51,0,0,0,2.92,2h.05A2.73,2.73,0,0,0,68.58,40a10.13,10.13,0,0,0-6.3-8,35.21,35.21,0,0,0-4.15-1.45V28a2.59,2.59,0,1,0-5.18,0v2.63a4.45,4.45,0,0,1-.64.22,29.72,29.72,0,0,0-4.82,2,9,9,0,0,0-4.87,7.4c-.34,4,1.57,6.78,5,8.54A56.07,56.07,0,0,0,52.95,51V61.27a5.9,5.9,0,0,1-5.22-4.74,2.59,2.59,0,0,0-5.12.83l0,.13a9.37,9.37,0,0,0,5.1,7.27,48.31,48.31,0,0,0,5.22,2.18v2.57a2.61,2.61,0,0,0,2.65,2.56Zm2.59-20.15a9.48,9.48,0,0,1,4,2,3.43,3.43,0,0,1,.55,4.49,7.24,7.24,0,0,1-4.57,3V51.92ZM53,45.42a9,9,0,0,1-4.21-2.15,3.49,3.49,0,0,1-.23-4.57A7.37,7.37,0,0,1,53,36.11v9.3Zm46.32,3.51A43.62,43.62,0,0,1,55.74,92.5a2.29,2.29,0,1,1,0-4.57A39,39,0,1,0,16.87,45.57l12.3-8a2.29,2.29,0,0,1,2.52,3.82l0,0-17,11.08a2.29,2.29,0,0,1-1.25.37,2.29,2.29,0,0,1-.48,0,2.29,2.29,0,0,1-1.44-1L.46,34.69a2.29,2.29,0,0,1,3.85-2.46l8.07,12.57a43.57,43.57,0,0,1,86.93,4.12Z"/></svg>