<svg id="Layer_1" data-name="Layer 1" xmlns="http://www.w3.org/2000/svg" viewBox="0 0 100 100"><defs><style>.cls-1{fill:#0981fe;stroke:#0981fe;stroke-miterlimit:10;stroke-width:0.5px;}</style></defs><title>allicons</title><path class="cls-1" d="M68.7,6.85a46.9,46.9,0,0,0-54,73.52H8.58a2.08,2.08,0,0,0,0,4.16H19.76a2.08,2.08,0,0,0,2.08-2.08v-12a2.08,2.08,0,1,0-4.16,0v7a42.76,42.76,0,0,1,49.4-66.78A2.08,2.08,0,0,0,68.7,6.85Z"/><path class="cls-1" d="M39.57,78.09a2.08,2.08,0,0,0,2.49-.47L71.51,44.7A2.08,2.08,0,0,0,70,41.23H53.56L59.9,24.75A2.08,2.08,0,0,0,58,21.92H43a2.08,2.08,0,0,0-1.92,1.29L29.18,51.92A2.08,2.08,0,0,0,31.1,54.8H42.83l-4.36,21A2.08,2.08,0,0,0,39.57,78.09ZM34.21,50.64,44.37,26.08H54.93L48.59,42.56a2.08,2.08,0,0,0,1.94,2.83H65.31L44.11,69.08l3.31-15.94a2.08,2.08,0,0,0-2-2.5Z"/><path class="cls-1" d="M92.78,19.61a2.08,2.08,0,1,0,0-4.16H80.87a2.08,2.08,0,0,0-2.08,2.08V28.84a2.08,2.08,0,0,0,4.16,0V22.27A42.73,42.73,0,0,1,31,88.14a2.08,2.08,0,0,0-1.91,3.7A46.9,46.9,0,0,0,86.14,19.61Z"/></svg>