<svg id="Layer_1" data-name="Layer 1" xmlns="http://www.w3.org/2000/svg" viewBox="0 0 100 100"><defs><style>.cls-1{fill:#0981fe;}</style></defs><title>allicons</title><path class="cls-1" d="M45.61,15a2.24,2.24,0,0,0-2.28,2.21s0,0,0,0v6.73H21a19.06,19.06,0,0,0,0,38.11h12.2a2.24,2.24,0,0,0,.07-4.48H21a14.57,14.57,0,0,1,0-29.15H43.34v6.73q0,.11,0,.21a2.26,2.26,0,0,0,3.36,1.72l15.69-9a2.22,2.22,0,0,0,.81-3.05,2.24,2.24,0,0,0-.81-.8l-15.69-9A2.27,2.27,0,0,0,45.61,15Zm2.21,6.1,8.93,5.11L47.82,31.3V21.07ZM67.14,33.94a2.24,2.24,0,0,0,.21,4.48h12.2a14.57,14.57,0,0,1,0,29.15H57.26V60.85c0-.07,0-.14,0-.21a2.26,2.26,0,0,0-3.36-1.72l-15.69,9a2.22,2.22,0,0,0-.81,3.05,2.24,2.24,0,0,0,.81.8l15.69,9A2.26,2.26,0,0,0,57,79.87a2.21,2.21,0,0,0,.29-1.08V72.06H79.55a19.06,19.06,0,0,0,0-38.11H67.14ZM52.78,64.7V74.93l-8.93-5.11Z"/></svg>