<svg id="Layer_1" data-name="Layer 1" xmlns="http://www.w3.org/2000/svg" viewBox="0 0 100 100"><defs><style>.cls-1{fill:#0981fe;stroke:#0981fe;stroke-miterlimit:10;stroke-width:0.75px;}</style></defs><title>allicons</title><path class="cls-1" d="M47.33,57.23l12.93,7.19.87.48a2.12,2.12,0,0,0,2.56-.33l6.45-7.24L83,42.89l9.56-10.73.77-.87a2.15,2.15,0,0,0,0-3,2.13,2.13,0,0,0-3,0L83.9,35.54,71,50,61.48,60.7l-.77.87,2.56-.33L50.33,54.05l-.87-.48a2.12,2.12,0,0,0-2.14,3.65Z"/><path class="cls-1" d="M6.51,75l6.82,1.7,4.05,1,.88.22a2.28,2.28,0,0,0,2.19-.62L31.83,66.89,38,61.18a2.12,2.12,0,1,0-3-3L24.66,67.74l-7.29,6.7,2.06-.54L7.64,71A2.12,2.12,0,1,0,6.51,75Z"/><path class="cls-1" d="M76,31.91H91.84L89.73,29.8V45.67a2.12,2.12,0,0,0,4.23,0V29.8a2.14,2.14,0,0,0-2.12-2.12H76a2.12,2.12,0,1,0,0,4.23Z"/><path class="cls-1" d="M30.76,48.87h3.47a16.52,16.52,0,0,0,4.22-.23,6,6,0,0,0-1.79-11.83H34.74l-.47,0c.61.05.17,0,0,0l-.38-.12c-.45-.15.44.21,0,0a3.92,3.92,0,0,1-.34-.2c-.39-.25.37.31,0,0a3.93,3.93,0,0,1-.37-.37c-.31-.34.28.4,0,0a3.88,3.88,0,0,1-.2-.34c-.07-.12-.22-.54,0,0a3.88,3.88,0,0,1-.12-.38c0-.13-.1-.6,0,0a4,4,0,0,1,0-.84c-.06.65,0,.05.05-.1s.21-.56,0,0a3.92,3.92,0,0,1,.18-.35,3.88,3.88,0,0,1,.21-.33c-.33.48-.1.13,0,0s.19-.18.28-.27c.35-.31-.4.28,0,0a3.93,3.93,0,0,1,.34-.2q.31-.15-.14,0l.25-.09.39-.1c.47-.11-.51,0,0,0h6.33a2.12,2.12,0,0,0,0-4.23H37.26a16.52,16.52,0,0,0-4.22.23A6,6,0,0,0,34.83,41h1.93l.47,0c-.61-.05-.17,0,0,0l.38.12c.45.15-.44-.21,0,0a3.92,3.92,0,0,1,.34.2c.39.25-.37-.31,0,0a3.93,3.93,0,0,1,.37.37c.31.34-.28-.4,0,0a3.92,3.92,0,0,1,.2.34c.07.12.22.54,0,0a3.89,3.89,0,0,1,.12.38c0,.13.1.6,0,0a4,4,0,0,1,0,.84c.06-.65,0-.05-.05.1s-.21.56,0,0a3.9,3.9,0,0,1-.39.68c.33-.48.1-.13,0,0s-.19.18-.28.27c-.35.31.4-.28,0,0a3.93,3.93,0,0,1-.34.2q-.31.15.14,0l-.25.09-.39.1c-.47.11.51,0,0,0H30.76a2.12,2.12,0,1,0,0,4.23Z"/><path class="cls-1" d="M37.89,31.1V27.18a2.12,2.12,0,0,0-4.23,0V31.1a2.12,2.12,0,0,0,4.23,0Z"/><path class="cls-1" d="M37.89,50.67V46.76a2.12,2.12,0,0,0-4.23,0v3.92a2.12,2.12,0,0,0,4.23,0Z"/><path class="cls-1" d="M54.4,38.93q0,1-.09,2c0,.16,0,.32-.05.48-.06.55.07-.47,0,.07-.05.37-.12.73-.19,1.1a20.63,20.63,0,0,1-1.14,3.74c.21-.52,0,0,0,.06l-.19.42c-.13.28-.27.55-.41.83-.31.59-.65,1.16-1,1.71-.17.26-.34.51-.52.75l-.27.37c.33-.44,0,0,0,.05-.41.52-.86,1-1.32,1.48s-.91.88-1.39,1.3l-.41.34c-.06,0-.53.41-.11.09-.3.23-.61.45-.93.66-.54.37-1.1.7-1.67,1-.29.16-.58.31-.87.45l-.45.21c-.09,0-.76.33-.25.11a20.65,20.65,0,0,1-4,1.18l-.5.09c-.09,0-.66.1-.11,0l-1,.11a21,21,0,0,1-2.31.06c-.64,0-1.28-.07-1.92-.15.58.07,0,0-.07,0l-.47-.08c-.36-.06-.72-.14-1.08-.22-.61-.14-1.2-.31-1.8-.51l-.87-.31-.43-.17.08,0L28.27,56A20.75,20.75,0,0,1,25,54.16l-.73-.54c.45.34,0,0,0,0l-.35-.29c-.5-.42-1-.87-1.44-1.34s-.83-.89-1.22-1.36l-.3-.38c.33.42,0,0-.06-.08-.22-.3-.43-.61-.64-.93-.36-.54-.68-1.1-1-1.67-.15-.29-.29-.58-.43-.87l-.2-.44q-.14-.33,0,.06l-.12-.3a20.66,20.66,0,0,1-1.12-4c0-.16-.06-.33-.08-.5-.09-.57.06.46,0-.11,0-.34-.07-.68-.1-1-.05-.68-.06-1.37,0-2s.06-1.14.12-1.71c0-.14,0-.28.05-.42-.08.63,0,.13,0,0,0-.32.11-.64.18-1a20.62,20.62,0,0,1,1-3.3l.15-.38c-.23.56,0,.12,0,0s.23-.49.34-.74c.26-.53.54-1,.84-1.54s.58-.91.89-1.35c.09-.13.63-.84.23-.33.19-.25.39-.49.6-.73a20.91,20.91,0,0,1,2.38-2.36l.63-.51c-.51.4.2-.14.33-.23.48-.34,1-.65,1.47-1s.94-.53,1.43-.77l.74-.34c.44-.2-.45.19,0,0l.51-.2a20.63,20.63,0,0,1,3.32-.95l.83-.15c.62-.1-.44.05.18,0l.56-.06a20.86,20.86,0,0,1,2.33-.08c.56,0,1.12,0,1.68.1l.41,0h0l.95.16a20.62,20.62,0,0,1,3.26.92c.15.06,1,.4.37.14l.73.33c.52.24,1,.52,1.53.8s.91.55,1.34.85l.64.46c.1.07.47.36,0,0l.41.33a20.91,20.91,0,0,1,2.36,2.29l.51.6.25.31c-.38-.48-.08-.11,0,0,.34.46.66.93,1,1.42s.54.91.79,1.38c.12.24.24.48.36.72l.17.36c.06.12.3.71.05.11a20.65,20.65,0,0,1,1.14,3.75c.06.31.12.63.17.95,0,.13.08.62,0,0,0,.18,0,.37.06.55a20.79,20.79,0,0,1,.11,2.11,2.12,2.12,0,1,0,4.23,0,22.87,22.87,0,0,0-4.39-13.46A23.33,23.33,0,0,0,42.7,17.12a22.78,22.78,0,0,0-15.24.49,23.33,23.33,0,0,0-11.13,9.22A22.76,22.76,0,0,0,13,41.24a22.88,22.88,0,0,0,45.64-2.32,2.12,2.12,0,1,0-4.23,0Z"/></svg>