<svg id="Layer_1" data-name="Layer 1" xmlns="http://www.w3.org/2000/svg" viewBox="0 0 100 100"><defs><style>.cls-1{fill:#0981fe;}</style></defs><title>allicons</title><path class="cls-1" d="M49.4,7c-3,1-6.54,4-7.56,6.62a8.4,8.4,0,0,0,.74,6.71c1.35,3.21,4.74,5.95,4.81,9.43H35.84a2.15,2.15,0,0,0-2,2.07H26.05A20.94,20.94,0,0,0,14.1,35.47,16.38,16.38,0,0,0,7.16,47.09Q5.07,64.74,3,82.4a9.05,9.05,0,0,0,4.81,8.26,9.77,9.77,0,0,0,8.62.06c4.15-3.37,8.21-7.09,12.27-10.65a13.52,13.52,0,0,0,11.08,4.29,13.43,13.43,0,0,0,9.72-6.42,13.45,13.45,0,0,0,9.72,6.42,13.52,13.52,0,0,0,11.08-4.29c4.19,3.37,8,7.48,12.27,10.65a9.78,9.78,0,0,0,8.62-.06,8.84,8.84,0,0,0,4.81-8c-1.38-12.36-3-25-4.2-35.57-.56-5-2.26-8.88-5-11.49a14.84,14.84,0,0,0-10.49-3.81H65a2.15,2.15,0,0,0-2.1-2.07H51.53c-.17-4.56-3.38-7.58-5.26-11.27-.72-1.43-.89-2.4-.52-3.42s1.56-2.48,4.68-4.16A2.13,2.13,0,0,0,51.49,8.5C50.94,7.64,50.5,7,49.4,7Zm-23.35,29H76.27c3.27,0,5.77.85,7.65,2.65s3.26,4.67,3.75,9L91.8,82.72A4.3,4.3,0,0,1,89.31,87a5.91,5.91,0,0,1-4.81.1l-13-11.39a2.15,2.15,0,0,0-3,.36,9.74,9.74,0,0,1-8.82,4.26c-3.2-.35-6.35-2.44-8.23-7.59a2.07,2.07,0,0,0-3.91,0c-1.88,5.14-5,7.24-8.2,7.59A9.75,9.75,0,0,1,30.48,76a2.15,2.15,0,0,0-3-.36L14.43,87A5.9,5.9,0,0,1,9.62,87a4.3,4.3,0,0,1-2.49-4.23l4.13-35.15a11.93,11.93,0,0,1,5.23-8.72,17.05,17.05,0,0,1,9.56-2.94Zm.1,2.07a12.4,12.4,0,1,0,12.4,12.4A12.43,12.43,0,0,0,26.15,38Zm46.63,0a12.4,12.4,0,1,0,12.4,12.4A12.43,12.43,0,0,0,72.78,38ZM26.15,42.12a8.26,8.26,0,1,1-8.27,8.26A8.23,8.23,0,0,1,26.15,42.12Zm46.63,0a8.26,8.26,0,1,1-8.27,8.26A8.23,8.23,0,0,1,72.78,42.12ZM38.1,63.81A7.23,7.23,0,1,0,45.33,71a7.26,7.26,0,0,0-7.23-7.23Zm22.73,0A7.23,7.23,0,1,0,68.06,71a7.26,7.26,0,0,0-7.23-7.23ZM38.1,67.94A3.1,3.1,0,1,1,35,71a3.07,3.07,0,0,1,3.1-3.1Zm22.73,0a3.1,3.1,0,1,1-3.1,3.1,3.07,3.07,0,0,1,3.1-3.1Z"/></svg>