<svg id="Layer_1" data-name="Layer 1" xmlns="http://www.w3.org/2000/svg" viewBox="0 0 100 100"><defs><style>.cls-1{fill:#0981fe;}</style></defs><title>allicons</title><path class="cls-1" d="M52.82,3.92A46.55,46.55,0,1,0,96.89,48,46.55,46.55,0,0,0,52.82,3.92ZM11.95,67A42.87,42.87,0,0,1,8.5,50.4a40.8,40.8,0,0,1,3.45-16.55ZM30.64,87.19a39.61,39.61,0,0,1-8.1-5.71h8.1Zm52-10.12V52.79h9.52A41.78,41.78,0,0,1,82.67,77.07Zm6.07-43.34H39.69a2.46,2.46,0,0,0-2.37,1.59,2.39,2.39,0,0,0,2.25,3.17h51a37.2,37.2,0,0,1,1.67,9.64H80.29a2.39,2.39,0,0,0-2.38,2.38V82.07a38.73,38.73,0,0,1-3.45,2.74H50.88V63.62a2.39,2.39,0,0,0-2.38-2.38h-16a5.17,5.17,0,0,0-4.68-3,5.4,5.4,0,0,0-5.39,4.61A5.34,5.34,0,0,0,27.78,69a5.17,5.17,0,0,0,4.76-3H46.12V87.07a2.39,2.39,0,0,0,2.38,2.38H65.76a41,41,0,0,1-15.36,3,40.18,40.18,0,0,1-15.12-2.86V79.33A2.39,2.39,0,0,0,32.9,77H18a20.35,20.35,0,0,1-1.31-1.67V25.64a40.87,40.87,0,0,1,5.71-6.31V50.4a2.39,2.39,0,0,0,2.38,2.38H62V65.41a7.08,7.08,0,0,0-4.72,7.4,7.24,7.24,0,0,0,7,6.41,7.16,7.16,0,0,0,7.23-7.14,7.09,7.09,0,0,0-4.76-6.67v-15A2.39,2.39,0,0,0,64.33,48H27.19V15.64a43.62,43.62,0,0,1,9.41-4.76H64.1A42.63,42.63,0,0,1,79.22,20H47.31a5.17,5.17,0,0,0-4.68-3,5.4,5.4,0,0,0-5.39,4.61,5.34,5.34,0,0,0,5.31,6.11,5.17,5.17,0,0,0,4.76-3H83.5A41.84,41.84,0,0,1,88.74,33.74Z"/></svg>