<svg id="Layer_1" data-name="Layer 1" xmlns="http://www.w3.org/2000/svg" viewBox="0 0 100 100"><defs><style>.cls-1{fill:#0981fe;}.cls-2{fill:none;stroke:#0981fe;stroke-linecap:round;stroke-miterlimit:10;stroke-width:5px;}</style></defs><title>allicons</title><path class="cls-1" d="M83.84,21.33l-15.41,0v-7c0-5.11-2.15-7.24-7.26-7.23l-22.49,0c-5.11,0-7.24,2.15-7.23,7.26v7L16,21.42C8,21.44,3.52,25.95,3.53,34v2l.07,44c0,8,4.52,12.52,12.55,12.51L84,92.39c8,0,12.52-4.52,12.51-12.55l-.07-46C96.38,25.81,91.87,21.31,83.84,21.33Zm-46.48-7.9a1.32,1.32,0,0,1,1.32-1.32l23.49,0a1.32,1.32,0,0,1,1.32,1.32v8l-26.13,0ZM91.54,80.85A6.6,6.6,0,0,1,85,87.47l-69.8.11A6.6,6.6,0,0,1,8.53,81L8.46,33A6.6,6.6,0,0,1,15,26.36l69.8-.11a6.6,6.6,0,0,1,6.61,6.59Z"/><line class="cls-2" x1="49.72" y1="45.95" x2="49.76" y2="70.95"/><line class="cls-2" x1="62.24" y1="58.43" x2="37.24" y2="58.47"/></svg>