<svg id="Layer_1" data-name="Layer 1" xmlns="http://www.w3.org/2000/svg" viewBox="0 0 100 100"><defs><style>.cls-1{fill:#0981fe;}</style></defs><title>allicons</title><path class="cls-1" d="M91.21,67.45,74.36,58.92l15.95-8.25c.51-.26.51-.69,0-.94l-18-9.11,18.91-9.78a2.46,2.46,0,0,0,0-4.5L54.32,7.67a4.22,4.22,0,0,0-1.87-.42,4.16,4.16,0,0,0-1.74.36L8.79,27.24a2.43,2.43,0,0,0,0,4.5l20.14,9.9-19.25,9c-.51.24-.52.64,0,.89L26.72,60,8.79,68.35a2.43,2.43,0,0,0,0,4.5L48.3,92.3a4.08,4.08,0,0,0,1.78.39A4.15,4.15,0,0,0,52,92.26L91.23,72a2.46,2.46,0,0,0,0-4.5ZM52.34,11.26h.11c.06,0,.11,0,.08,0L86.84,28.61l-36.66,19h-.1v0L13.32,29.53ZM50.19,88.68h-.11v0L13.32,70.64,30.7,62.51l17.6,8.66a4.29,4.29,0,0,0,3.65,0l18.63-9.63,16.25,8.23Z"/></svg>