<svg id="Layer_1" data-name="Layer 1" xmlns="http://www.w3.org/2000/svg" viewBox="0 0 100 100"><defs><style>.cls-1{fill:#0981fe;}</style></defs><title>allicons</title><path class="cls-1" d="M15.34,10.22a2.15,2.15,0,0,0-1.65,1.09L5.6,26.12a2.13,2.13,0,0,0-.26,1v6a8.36,8.36,0,0,0,4.23,7.11V82.16H5.14a2.12,2.12,0,1,0,.2,4.23H94.07a2.12,2.12,0,1,0,0-4.23H89.85V40.28a8.36,8.36,0,0,0,4.23-7.11v-6a2.13,2.13,0,0,0-.26-1L85.72,11.31a2.16,2.16,0,0,0-1.85-1.09H15.34Zm1.45,4.23H82.62L88.4,25H11ZM9.56,29.27H89.85v3.9c0,2.3-2.45,4.56-6,4.56a6.56,6.56,0,0,1-5.15-2.28,2.21,2.21,0,0,0-3.37,0,7,7,0,0,1-10.3,0,2.21,2.21,0,0,0-3.37,0,7,7,0,0,1-10.3,0,2.21,2.21,0,0,0-3.37,0,7,7,0,0,1-10.3,0,2.21,2.21,0,0,0-3.37,0,6.56,6.56,0,0,1-5.15,2.28,6.56,6.56,0,0,1-5.15-2.28,2.21,2.21,0,0,0-3.37,0,6.56,6.56,0,0,1-5.15,2.28c-3.53,0-6-2.26-6-4.56ZM22.37,39.71a11.51,11.51,0,0,0,13.67,0,11.51,11.51,0,0,0,13.67,0,11.51,11.51,0,0,0,13.67,0,11.51,11.51,0,0,0,13.67,0A11.09,11.09,0,0,0,83.87,42a11.57,11.57,0,0,0,1.75-.13V82.16H45.45V52.54a2.2,2.2,0,0,0-2.11-2.12H19.86A2.19,2.19,0,0,0,18,52.54V82.16H13.79V41.83a11.55,11.55,0,0,0,1.75.13,11.09,11.09,0,0,0,6.83-2.25ZM55.88,50.43A2.19,2.19,0,0,0,54,52.54V67.35a2.2,2.2,0,0,0,2.11,2.12H79.32a2.2,2.2,0,0,0,2.11-2.12V52.54a2.2,2.2,0,0,0-2.11-2.12ZM22.21,54.66h19V82.16h-19Zm36,0h19V65.24h-19Z"/></svg>