<svg id="Layer_1" data-name="Layer 1" xmlns="http://www.w3.org/2000/svg" viewBox="0 0 100 100"><defs><style>.cls-1,.cls-2{fill:#0981fe;}.cls-2{stroke:#000;stroke-miterlimit:10;stroke-width:0.01px;}</style></defs><title>allicons</title><path class="cls-1" d="M96.34,30.94a2.84,2.84,0,0,0-.94-2.19L83.84,17.19a3.35,3.35,0,0,0-4.37-.31l-8.75,7.19A43.87,43.87,0,0,0,60.09,20V15.31a7.71,7.71,0,0,0,6.25-7.5A7.3,7.3,0,0,0,58.84,0H43.21a7.73,7.73,0,0,0-1.56,15.31v4.38a47.07,47.07,0,0,0-10.94,4.38l-8.44-7.5a3.35,3.35,0,0,0-4.37.31L6.34,28.44a3.38,3.38,0,0,0-.94,2.19,2.84,2.84,0,0,0,.94,2.19l8.75,7.81A38.81,38.81,0,0,0,10.4,59.38a40.63,40.63,0,0,0,81.25,0A38,38,0,0,0,87,40.63l8.44-7.19A4.16,4.16,0,0,0,96.34,30.94ZM41,7.5A3.51,3.51,0,0,1,44.5,4h13a3.5,3.5,0,0,1,0,7h-13A3.51,3.51,0,0,1,41,7.5Zm13.15,8.13v3.44c-.94,0-2.19-.31-3.12-.31a10.63,10.63,0,0,0-3.12.31V15.63Zm-42.62,15,9.19-9.19,6,5.38a63.94,63.94,0,0,0-8.87,9.5ZM51,94.8A35.42,35.42,0,1,1,86.45,59.38,35.32,35.32,0,0,1,51,94.8Zm33.5-58.49a66,66,0,0,0-9.19-9.5l6.31-5.37,9.19,9.19Z"/><path class="cls-2" d="M60.67,61a8.58,8.58,0,0,0-1.37-1.14,14.86,14.86,0,0,0-2.83-1.6c-1.21-.51-2.53-.89-3.67-1.3V46.51a.91.91,0,0,0,.38.11l.58.23c2.16.89,3.86,2.1,4.25,4.64a2.51,2.51,0,0,0,2.92,2H61a2.73,2.73,0,0,0,2.1-3.06,10.13,10.13,0,0,0-6.3-8A35.21,35.21,0,0,0,52.63,41V38.51a2.59,2.59,0,1,0-5.18,0v2.63a4.44,4.44,0,0,1-.64.22,29.71,29.71,0,0,0-4.82,2,9,9,0,0,0-4.87,7.4c-.34,4,1.57,6.78,5,8.54a56.08,56.08,0,0,0,5.34,2.21V71.77A5.9,5.9,0,0,1,42.23,67a2.59,2.59,0,0,0-5.12.83l0,.13a9.37,9.37,0,0,0,5.1,7.27,48.3,48.3,0,0,0,5.22,2.18V80a2.61,2.61,0,0,0,2.65,2.56h0A2.57,2.57,0,0,0,52.67,80a11.84,11.84,0,0,0,0-2.1c0-.56.18-.73.77-.87a13.1,13.1,0,0,0,7.11-3.89A8.57,8.57,0,0,0,60.67,61ZM47.5,55.92a9,9,0,0,1-4.21-2.15,3.49,3.49,0,0,1-.23-4.57,7.37,7.37,0,0,1,4.44-2.58Zm9.83,13a7.24,7.24,0,0,1-4.57,3V62.42h0a9.47,9.47,0,0,1,4,2A3.43,3.43,0,0,1,57.33,68.9Z"/></svg>