<svg id="Layer_1" data-name="Layer 1" xmlns="http://www.w3.org/2000/svg" viewBox="0 0 100 100"><defs><style>.cls-1{fill:none;stroke:#0981fe;stroke-linecap:round;stroke-miterlimit:10;stroke-width:4.5px;}</style></defs><title>allicons</title><path class="cls-1" d="M18.12,19.92A44.44,44.44,0,0,1,48.55,4.79C67.13,3.66,79.29,15,81.24,16.89"/><path class="cls-1" d="M15.2,38c2-3.3,13.57-22,33.23-23.65,20.35-1.73,33.62,16,35.76,18.92"/><path class="cls-1" d="M15.93,50.52a43.25,43.25,0,0,0,7.2-6.78c3.7-4.39,4.18-6.78,6.63-9.94,5.52-7.18,14-9.34,15.27-9.65,11.78-2.84,21.28,3.52,22,4A28.07,28.07,0,0,1,79,50.09c.14,8.11-4.17,11.39-2.45,18.86A21.76,21.76,0,0,0,83.33,79.9"/><path class="cls-1" d="M15.64,64.05A53.4,53.4,0,0,0,28.46,51.38c4.68-6.6,5.1-10.61,10.37-14.41a20.13,20.13,0,0,1,12.53-4,19.92,19.92,0,0,1,15.39,8.74c7,11-4.1,22.88,2.74,36a24.56,24.56,0,0,0,8.49,9"/><path class="cls-1" d="M14.64,76.86c12.27-8,19.22-16.2,23.33-22.32,3.3-4.93,6.16-10.64,11.66-11.38a10.82,10.82,0,0,1,10.65,5.47c1.48,3,.9,6.89-2.45,13.11C50.77,74.83,38.4,85.33,27.88,92.57"/><path class="cls-1" d="M18.23,86.8A116.77,116.77,0,0,0,40.41,67.65a116.25,116.25,0,0,0,10.95-14.3"/><path class="cls-1" d="M84.19,39.72a42.17,42.17,0,0,1,1.3,30.39"/><path class="cls-1" d="M59,73.85a16.13,16.13,0,0,0-.72,10.37,16.51,16.51,0,0,0,8.06,9.94"/><path class="cls-1" d="M37,95.59a27.54,27.54,0,0,1,5-4c2.71-1.68,4.52-2.85,6.48-2.59,3,.4,5.48,4.16,6.48,9"/></svg>