<svg id="Layer_1" data-name="Layer 1" xmlns="http://www.w3.org/2000/svg" viewBox="0 0 100 100"><defs><style>.cls-1{fill:#0981fe;}</style></defs><title>allicons</title><path class="cls-1" d="M91.07,42.07,77.37,18.55a7.33,7.33,0,0,0,1.84-4.91,7.69,7.69,0,0,0-7.57-7.57,7.43,7.43,0,0,0-7,4.71h-28a7.34,7.34,0,0,0-7-4.71,7.69,7.69,0,0,0-7.57,7.57A6.48,6.48,0,0,0,24,18.34L10.06,42.07c-.41,0-.61-.2-1-.2A7.57,7.57,0,0,0,9,57a1.84,1.84,0,0,0,1-.2L24,81.15A7.53,7.53,0,0,0,29.5,93.83a7.26,7.26,0,0,0,7.16-5.52H64.27a7.49,7.49,0,0,0,7.36,5.52,7.69,7.69,0,0,0,7.57-7.57A7.43,7.43,0,0,0,77,80.94L90.87,57c.41,0,.61.2,1,.2a7.69,7.69,0,0,0,7.57-7.57A7.24,7.24,0,0,0,91.07,42.07Zm-6.34,5.32h-11V20.8h.2l13.3,22.91A9.7,9.7,0,0,0,84.73,47.39Zm-18.62-29L54.66,38.19a13.23,13.23,0,0,0-4.09-.82,9.16,9.16,0,0,0-4.09.82L35,18.55a6.91,6.91,0,0,0,1.84-3.89H64.27A10.38,10.38,0,0,0,66.11,18.34Zm-20,37.44A7.77,7.77,0,1,1,51,57.21,7,7,0,0,1,46.07,55.78Zm-14.73-35h.2L42.79,40.44A11.54,11.54,0,0,0,38.7,47.6H31.34Zm7.57,30.69A12.12,12.12,0,0,0,43,58.64L31.34,78.49v-27ZM34.81,80.74l11.66-20a16.1,16.1,0,0,0,4.09.82,10.4,10.4,0,0,0,4.09-.82L66.32,80.94a8.53,8.53,0,0,0-1.84,3.27H36.86A7.51,7.51,0,0,0,34.81,80.74Zm35-2.25-11.46-20a12.12,12.12,0,0,0,4.09-7.16H69.8Zm-7.57-31.1a11.68,11.68,0,0,0-4.09-7.16L69.39,20.59h.2V47.19H62.23ZM71.84,10a3.58,3.58,0,0,1,3.48,3.48,3.58,3.58,0,0,1-3.48,3.48h0a3.58,3.58,0,0,1-3.48-3.48A3.45,3.45,0,0,1,71.84,10ZM29.5,10A3.58,3.58,0,0,1,33,13.43a3.58,3.58,0,0,1-3.48,3.48h0A3.58,3.58,0,0,1,26,13.43,3.58,3.58,0,0,1,29.5,10ZM27,20.59h0l.2,26.8H16.4a9.7,9.7,0,0,0-2.45-3.68ZM5.56,49.44A3.58,3.58,0,0,1,9,46a3.58,3.58,0,0,1,3.48,3.48h0A3.58,3.58,0,0,1,9,52.92,3.58,3.58,0,0,1,5.56,49.44Zm10.64,2h11v27L13.95,55.17A7.51,7.51,0,0,0,16.2,51.48ZM29.5,89.74A3.48,3.48,0,1,1,33,86.26,3.45,3.45,0,0,1,29.5,89.74Zm42.35,0a3.58,3.58,0,0,1-3.48-3.48h0a3.58,3.58,0,0,1,3.48-3.48h0a3.48,3.48,0,1,1,0,7Zm2-11.25v-27h11a6.58,6.58,0,0,0,2.45,3.68ZM92.1,52.92a3.58,3.58,0,0,1-3.48-3.48h0a3.48,3.48,0,1,1,3.48,3.48Z"/></svg>