<svg id="Layer_1" data-name="Layer 1" xmlns="http://www.w3.org/2000/svg" viewBox="0 0 100 100"><defs><style>.cls-1{fill:#0981fe;}</style></defs><title>allicons</title><path class="cls-1" d="M63.67,87.71a25,25,0,1,1,25-25A25.07,25.07,0,0,1,63.67,87.71Zm0-46a21,21,0,1,0,21,21A21,21,0,0,0,63.67,41.67Z"/><path class="cls-1" d="M63.67,37.88A24.79,24.79,0,1,1,38.88,62.67,24.82,24.82,0,0,1,63.67,37.88m0,46A21.25,21.25,0,1,0,42.42,62.67,21.27,21.27,0,0,0,63.67,83.92m0-46.54A25.29,25.29,0,1,0,89,62.67,25.32,25.32,0,0,0,63.67,37.38Zm0,46A20.75,20.75,0,1,1,84.42,62.67,20.77,20.77,0,0,1,63.67,83.42Z"/><path class="cls-1" d="M19.4,59.84c-5,0-9.1-3.29-9.1-7.33s4.08-7.33,9.1-7.33,9.1,3.29,9.1,7.33S24.42,59.84,19.4,59.84Zm0-10.62c-2.74,0-5.06,1.51-5.06,3.29s2.32,3.29,5.06,3.29,5.06-1.51,5.06-3.29S22.14,49.22,19.4,49.22Z"/><path class="cls-1" d="M19.4,45.43c4.88,0,8.85,3.18,8.85,7.08s-4,7.08-8.85,7.08-8.85-3.18-8.85-7.08,4-7.08,8.85-7.08m0,10.63c2.88,0,5.31-1.62,5.31-3.54S22.28,49,19.4,49s-5.31,1.62-5.31,3.54,2.43,3.54,5.31,3.54m0-11.12c-5.16,0-9.35,3.4-9.35,7.58s4.2,7.58,9.35,7.58,9.35-3.4,9.35-7.58-4.2-7.58-9.35-7.58Zm0,10.63c-2.56,0-4.81-1.42-4.81-3s2.25-3,4.81-3,4.81,1.42,4.81,3-2.25,3-4.81,3Z"/><path class="cls-1" d="M42.42,50.05c-5,0-9.1-3.29-9.1-7.33s4.08-7.33,9.1-7.33,9.1,3.29,9.1,7.33S47.44,50.05,42.42,50.05Zm0-10.62c-2.74,0-5.06,1.51-5.06,3.29S39.67,46,42.42,46s5.06-1.51,5.06-3.29S45.16,39.43,42.42,39.43Z"/><path class="cls-1" d="M42.42,35.64c4.88,0,8.85,3.18,8.85,7.08s-4,7.08-8.85,7.08-8.85-3.18-8.85-7.08,4-7.08,8.85-7.08m0,10.63c2.88,0,5.31-1.62,5.31-3.54s-2.43-3.54-5.31-3.54S37.1,40.8,37.1,42.72s2.43,3.54,5.31,3.54m0-11.12c-5.16,0-9.35,3.4-9.35,7.58s4.2,7.58,9.35,7.58,9.35-3.4,9.35-7.58-4.2-7.58-9.35-7.58Zm0,10.63c-2.56,0-4.81-1.42-4.81-3s2.25-3,4.81-3,4.81,1.42,4.81,3-2.25,3-4.81,3Z"/><path class="cls-1" d="M24.46,53.6V22.74a6.34,6.34,0,0,1,4.24-6.27L51.52,9.93V42h-4V15.3L29.81,20.36a2.45,2.45,0,0,0-1.31,2.38V53.6Z"/><path class="cls-1" d="M51.27,10.27V41.78H47.73V15l-18,5.15a2.66,2.66,0,0,0-1.49,2.62v30.6H24.71V22.74a6.09,6.09,0,0,1,4.06-6l22.51-6.45m.5-.66-.64.18L28.63,16.24a6.59,6.59,0,0,0-4.42,6.51v31.1h4.54V22.74a2.2,2.2,0,0,1,1.13-2.14l17.35-5V42.28h4.54V9.6Z"/><rect class="cls-1" x="25.7" y="22.99" width="24.58" height="4.04" transform="translate(-5.67 12.27) rotate(-17.09)"/><path class="cls-1" d="M49,19.78l1,3.39L27,30.24l-1-3.39,23-7.08m.33-.62-.48.15-23,7.08-.48.15.15.48,1,3.39.15.48.48-.15,23-7.08.48-.15L50.5,23l-1-3.39-.15-.48Z"/><polygon class="cls-1" points="56.66 55.66 68.79 57.74 68.11 61.72 61.61 60.61 62.72 67.11 58.74 67.79 56.66 55.66"/><path class="cls-1" d="M57,56l11.54,2-.6,3.49L61.3,60.3l1.13,6.6-3.49.6L57,56m-.61-.61.12.7,2,11.54.08.49L59,68l3.49-.6.49-.08-.08-.49-1-5.9,5.9,1,.49.08.08-.49L69,58l.08-.49-.49-.08L57,55.47l-.7-.12Z"/><rect class="cls-1" x="65.19" y="55.94" width="4.04" height="20.53" transform="translate(-27.13 66.92) rotate(-45)"/><path class="cls-1" d="M61.38,57.87,75.54,72,73,74.54,58.87,60.38l2.5-2.5m0-.71-.35.35L58.52,60l-.35.35.35.35L72.69,74.9l.35.35.35-.35,2.5-2.5.35-.35-.35-.35L61.73,57.52l-.35-.35Z"/></svg>