<svg id="Layer_1" data-name="Layer 1" xmlns="http://www.w3.org/2000/svg" viewBox="0 0 100 100"><defs><style>.cls-1{fill:#0981fe;}.cls-2{fill:#fffdfd;}</style></defs><title>allicons</title><path class="cls-1" d="M50.15,98.7A3,3,0,0,1,49,98.48a72.86,72.86,0,0,1-23-15C19.25,76.9,11.2,65.69,11.2,50V17.29a3,3,0,0,1,3-3h12c2.14,0,4-1.38,5.89-4.33a29,29,0,0,0,2.06-4c.21-.49.39-.93.56-1.34.26-.64.48-1.19.76-1.75a3,3,0,0,1,2.39-1.67H62.13a3,3,0,0,1,2.7,1.67c.28.56.5,1.11.76,1.75.17.41.35.85.56,1.34a28.89,28.89,0,0,0,2.06,4c1.88,3,3.75,4.33,5.89,4.33h12a3,3,0,0,1,3,3V50c0,15.74-8,26.94-14.79,33.58a72.82,72.82,0,0,1-23,15A3,3,0,0,1,50.15,98.7ZM17.24,50c0,11,4.36,20.81,13,29.27a66,66,0,0,0,19.85,13l.1,0,.1,0a65.94,65.94,0,0,0,19.85-13c8.61-8.46,13-18.3,13-29.27V20.31h-9c-5.33,0-8.91-3.88-11-7.13a34.84,34.84,0,0,1-2.5-4.8c-.13-.29-.19-.44-.25-.59l-.22-.54h-20l-.23.55c-.06.15-.12.3-.25.59a34.91,34.91,0,0,1-2.5,4.8c-2.07,3.25-5.66,7.13-11,7.13h-9ZM48,67.13a6.37,6.37,0,0,1-6.28-6.28V52l-.07-.07a10.9,10.9,0,0,1-3.2-7.42,11.73,11.73,0,0,1,23.46,0,10.9,10.9,0,0,1-3.2,7.42l-.07.07v8.84a6.37,6.37,0,0,1-6.28,6.28Zm2.18-28.31a5.63,5.63,0,0,0-5.69,5.69,4.89,4.89,0,0,0,2.13,4.18A3,3,0,0,1,47.73,51v10h4.86V51a3,3,0,0,1,1.13-2.36,4.9,4.9,0,0,0,2.14-4.18A5.63,5.63,0,0,0,50.15,38.82Z"/><path class="cls-2" d="M38,1.45H62.14A2.75,2.75,0,0,1,64.61,3c.28.55.5,1.1.76,1.73.17.41.35.85.56,1.34a29.23,29.23,0,0,0,2.08,4c1.93,3,3.87,4.45,6.1,4.45h12a2.77,2.77,0,0,1,2.77,2.77V50c0,15.65-8,26.8-14.72,33.4a72.58,72.58,0,0,1-22.94,14.9,2.77,2.77,0,0,1-2.08,0,72.58,72.58,0,0,1-22.94-14.9C19.46,76.76,11.45,65.61,11.45,50V17.29a2.77,2.77,0,0,1,2.77-2.77h12c2.23,0,4.17-1.41,6.1-4.45a29.22,29.22,0,0,0,2.08-4c.21-.49.39-.93.56-1.34.26-.63.48-1.18.76-1.73a2.74,2.74,0,0,1,2.16-1.53H38m12.15,91.1.2-.08A66.21,66.21,0,0,0,70.27,79.41c8.66-8.5,13-18.41,13-29.45V20.06H74.11c-5.21,0-8.74-3.82-10.77-7a34.61,34.61,0,0,1-2.48-4.76c-.13-.29-.18-.43-.25-.59l-.16-.39L60.32,7H40l-.13.31-.16.39c-.06.16-.12.3-.25.59A34.6,34.6,0,0,1,37,13c-2,3.2-5.56,7-10.77,7H17V50c0,11,4.39,20.94,13,29.45A66.22,66.22,0,0,0,50,92.47l.2.08m0-59.52A11.49,11.49,0,0,1,61.63,44.51a10.66,10.66,0,0,1-3.14,7.25l-.13.14v8.94a6.11,6.11,0,0,1-6,6H48a6.11,6.11,0,0,1-6-6V51.91l-.13-.14a10.66,10.66,0,0,1-3.14-7.25A11.49,11.49,0,0,1,50.15,33M47.48,61.34h5.36V51a2.75,2.75,0,0,1,1-2.16,5.18,5.18,0,0,0,2.23-4.37,5.94,5.94,0,0,0-11.89,0,5.18,5.18,0,0,0,2.23,4.37,2.75,2.75,0,0,1,1,2.16v10.3M38,1h-.17a3.27,3.27,0,0,0-2.59,1.8c-.47.93-.79,1.85-1.33,3.1a29.22,29.22,0,0,1-2,3.95C30.25,12.37,28.45,14,26.2,14h-12A3.27,3.27,0,0,0,11,17.29V50c0,14.6,6.81,25.84,14.87,33.75a72.49,72.49,0,0,0,23.1,15,3.27,3.27,0,0,0,2.45,0,72.49,72.49,0,0,0,23.1-15C82.54,75.79,89.35,64.56,89.35,50V17.29A3.27,3.27,0,0,0,86.09,14h-12c-2.26,0-4.05-1.66-5.68-4.22a29.23,29.23,0,0,1-2-3.95c-.54-1.24-.86-2.16-1.33-3.1A3.27,3.27,0,0,0,62.14,1H38ZM50.15,92A65.17,65.17,0,0,1,30.38,79C23.2,72,17.49,62.55,17.49,50V20.56H26.2c5.37,0,9-3.82,11.2-7.25a35,35,0,0,0,2.52-4.83c.22-.5.23-.57.41-1H60c.17.41.19.49.41,1a35,35,0,0,0,2.52,4.83c2.18,3.43,5.83,7.25,11.2,7.25h8.71V50c0,12.6-5.71,22-12.9,29.09A65.16,65.16,0,0,1,50.15,92Zm0-59.48a12,12,0,0,0-12,12,11.17,11.17,0,0,0,3.27,7.59v8.74A6.59,6.59,0,0,0,48,67.38h4.36a6.59,6.59,0,0,0,6.53-6.53V52.1a11.17,11.17,0,0,0,3.27-7.59,12,12,0,0,0-12-12ZM48,60.84V51a3.27,3.27,0,0,0-1.22-2.55,4.67,4.67,0,0,1-2-4,5.44,5.44,0,0,1,10.89,0,4.67,4.67,0,0,1-2,4A3.27,3.27,0,0,0,52.33,51v9.8Z"/></svg>