<svg xmlns="http://www.w3.org/2000/svg" viewBox="0 0 97.23 64.02"><defs><style>.cls-1{fill:#0981fe;}</style></defs><title>Prood-of-Stake</title><g id="Layer_2" data-name="Layer 2"><g id="Layer_1-2" data-name="Layer 1"><path class="cls-1" d="M97,31.86a6.43,6.43,0,0,0-12.34-.37H64.76A22.94,22.94,0,0,0,63,22.9h6.81a6.43,6.43,0,1,0,0-3.95H60.89a22.76,22.76,0,0,0-37.63,0H12.88v-6.4a6.43,6.43,0,1,0-3.95,0V22.88H21.12a22.63,22.63,0,0,0-1.8,8.59H12.55a6.43,6.43,0,0,0-7.72-4.25,6.43,6.43,0,1,0,7.72,8.2h7.11a22.32,22.32,0,0,0,2.68,7.44h-13v8.61a6.43,6.43,0,0,0,2,12.55,6.47,6.47,0,0,0,1.62-.21,6.43,6.43,0,0,0,.37-12.34V46.81H25.09a22.66,22.66,0,0,0,34,0h8.19v7.42H79.57a6.43,6.43,0,1,0-.22-3.95H71.2V42.86H61.88a22.32,22.32,0,0,0,2.62-7.42H84.68A6.43,6.43,0,0,0,97,31.86Zm-3.76,1.61A2.48,2.48,0,1,1,90.78,31,2.48,2.48,0,0,1,93.26,33.47ZM13.81,57.57a2.48,2.48,0,1,1-2.48-2.48A2.48,2.48,0,0,1,13.81,57.57ZM8.42,6.48A2.48,2.48,0,1,1,10.9,9,2.48,2.48,0,0,1,8.42,6.48ZM60.88,31.71A18.81,18.81,0,1,1,42.08,12.91,18.83,18.83,0,0,1,60.88,31.71ZM73.46,20.92a2.48,2.48,0,1,1,2.48,2.48A2.48,2.48,0,0,1,73.46,20.92ZM8.93,33.47A2.48,2.48,0,1,1,6.45,31,2.48,2.48,0,0,1,8.93,33.47ZM83.08,52a2.48,2.48,0,1,1,2.48,2.48A2.48,2.48,0,0,1,83.08,52Z"/><path class="cls-1" d="M49.5,24.3,37.56,36.24,34.29,33a2.45,2.45,0,0,0-3.47,3.47l5.07,5.07A2.42,2.42,0,0,0,39.74,41L53,27.77A2.45,2.45,0,0,0,49.5,24.3Z"/></g></g></svg>