<svg xmlns="http://www.w3.org/2000/svg" viewBox="0 0 97.18 75.1"><defs><style>.cls-1{fill:#0981fe;}</style></defs><title>Proof-of-Work</title><g id="Layer_2" data-name="Layer 2"><g id="Layer_1-2" data-name="Layer 1"><path class="cls-1" d="M6.63,0A6.66,6.66,0,0,0,0,6.63V22.25a2.21,2.21,0,0,0,4.42.06s0,0,0-.06V6.63A2.16,2.16,0,0,1,6.63,4.42H42a2.16,2.16,0,0,1,2.21,2.21V22.09A2.16,2.16,0,0,1,42,24.3H6.63a2.16,2.16,0,0,1-2.21-2.21A2.21,2.21,0,1,0,0,22s0,0,0,.06a6.66,6.66,0,0,0,6.63,6.63H22.09v4.42H16.36a2.21,2.21,0,1,0,.21,4.42H32a2.21,2.21,0,1,0,.06-4.42H26.5V28.71H42a6.66,6.66,0,0,0,6.63-6.63V6.63A6.66,6.66,0,0,0,42,0ZM72.89,6.63A6.67,6.67,0,0,0,66.64,11H53.91a2.21,2.21,0,0,0,.21,4.42H66.64a6.72,6.72,0,0,0,4,4V32a2.21,2.21,0,1,0,4.42.06s0,0,0-.06V19.5A6.63,6.63,0,0,0,72.89,6.63Zm0,4.42a2.21,2.21,0,1,1-2.21,2.21A2.18,2.18,0,0,1,72.89,11ZM55.22,37.55a6.66,6.66,0,0,0-6.63,6.63V59.63a6.66,6.66,0,0,0,6.63,6.63H70.68v4.42H64.95a2.21,2.21,0,0,0,.21,4.42H80.62a2.21,2.21,0,0,0,.06-4.42H75.09V66.26H90.55a6.66,6.66,0,0,0,6.63-6.63V44.17a6.66,6.66,0,0,0-6.63-6.63ZM24.05,40.83a2.21,2.21,0,0,0-2,2.24V55.6a6.63,6.63,0,1,0,8.45,8.45H43.07a2.21,2.21,0,1,0,.06-4.42H30.54a6.72,6.72,0,0,0-4-4V43.07a2.21,2.21,0,0,0-2.16-2.26ZM55.22,42H90.55a2.16,2.16,0,0,1,2.21,2.21V59.63a2.16,2.16,0,0,1-2.21,2.21H55.22A2.16,2.16,0,0,1,53,59.63V44.17A2.16,2.16,0,0,1,55.22,42ZM24.3,59.63a2.21,2.21,0,1,1-2.21,2.21A2.18,2.18,0,0,1,24.3,59.63Z"/></g></g></svg>