<svg id="Layer_1" data-name="Layer 1" xmlns="http://www.w3.org/2000/svg" viewBox="0 0 100 100"><defs><style>.cls-1{fill:#0981fe;stroke:#fff;stroke-miterlimit:10;stroke-width:0.25px;}</style></defs><title>allicons</title><path class="cls-1" d="M49.46,4.21a46.22,46.22,0,0,0-39,71.06q.58.91,1.2,1.78l.68,1,.17.22c.24.32.48.65.72,1h0c.17.22.36.43.54.64l0,0q.69.84,1.43,1.65h0c.34.38.68.76,1,1.13q1.61,1.66,3.38,3.15t3.68,2.8a46.22,46.22,0,0,0,3.94,2.42q1.05.57,2.13,1.09h0q1,.48,2,.92a45.86,45.86,0,0,0,8.82,2.73h0l.19,0c.67.13,1.35.26,2,.36l1.18.15,1.09.13h.07c.64.06,1.28.11,1.93.14l.31,0h0q1.16.06,2.32.06h.05c1,0,2,0,3-.11h.35l.38,0q2-.16,4-.49h.13l.62-.12,1.35-.27.84-.19,1.35-.34.35-.09.59-.18,1.26-.38.91-.31,1.26-.45.37-.13.53-.22,1.18-.49L69,92.38l.87-.41.59-.28.75-.41.55-.29q.76-.42,1.51-.87l.36-.22.84-.51h0c.28-.18.55-.38.83-.56l0,0,0,0q.91-.61,1.78-1.27c.36-.27.73-.54,1.09-.82q1.81-1.44,3.47-3.05h0q1.66-1.61,3.15-3.38a46.24,46.24,0,0,0,2.8-3.68l0,0,0,0,.12-.19A46.24,46.24,0,0,0,49.46,4.21Zm0,4.68A41.59,41.59,0,0,1,85.83,70.61a25.54,25.54,0,0,0-8.41-6.15,16.71,16.71,0,1,0-18.11,0,26.08,26.08,0,0,0-9.85,7.88,26,26,0,0,0-9.83-7.9,16.71,16.71,0,1,0-18.14,0,25.55,25.55,0,0,0-8.4,6.15A41.58,41.58,0,0,1,49.46,8.9ZM30.54,38.24a12.12,12.12,0,1,1-12,12.12A12,12,0,0,1,30.54,38.24Zm37.83,0a12.12,12.12,0,1,1-12,12.12A12,12,0,0,1,68.37,38.24ZM30.54,67.16c7.27,0,13.94,4.63,17.75,12,.3.57.57,1.15.83,1.74l.2.46c.25.61.48,1.23.69,1.86.06.17.12.33.17.5.2.63.37,1.28.53,1.93,0,.16.09.32.13.48q.28,1.22.46,2.48h0a31.51,31.51,0,0,1,.24,3.38c-.69,0-1.39.07-2.08.07-.53,0-1.06,0-1.59,0h-.5q-1-.05-2.06-.16a41.52,41.52,0,0,1-4.11-.62q-2-.41-4-1t-3.9-1.42q-1.91-.81-3.74-1.81a41.29,41.29,0,0,1-6.85-4.69q-1.59-1.34-3-2.83t-2.73-3.11h0c-.39-.49-.73-1-1.09-1.53,4-4.85,9.23-7.6,14.73-7.61Zm37.83,0c5.51,0,10.77,2.77,14.74,7.62-.6.83-1.2,1.67-1.87,2.46q-1.34,1.59-2.83,3T75.29,83q-1.63,1.29-3.38,2.42t-3.6,2.07q-1.85.94-3.79,1.7t-3.9,1.29h-.08c-.6.17-1.21.32-1.82.46l-.25.06c-.53.12-1.05.22-1.58.32l-.46.08-.19,0c0-.41,0-.82-.06-1.23,0-.07,0-.14,0-.21q-.09-1.05-.24-2.1h0c-.12-.82-.27-1.62-.44-2.43l-.07-.35,0-.17c-.17-.72-.36-1.43-.57-2.13l-.09-.3c0-.15-.08-.3-.13-.44-.2-.62-.42-1.22-.65-1.82l-.08-.19c-.1-.25-.19-.51-.3-.76h0Q53,78,52.32,76.71v0l0,0c4-6,9.91-9.44,16.1-9.45h0Z"/></svg>